<svg width="14" height="20" viewBox="0 0 14 20" fill="none" xmlns="http://www.w3.org/2000/svg">
<path d="M1.33301 18.2335H7.56501C8.10328 18.2326 8.58819 17.9081 8.79434 17.4108L11.605 11.0882C11.9731 10.6632 12.0351 10.0529 11.7599 9.56264C11.4847 9.07233 10.9315 8.80733 10.377 8.90018H7.56634L8.79567 2.74418C8.83424 2.07908 8.37596 1.48759 7.72231 1.35881C7.06866 1.23002 6.42027 1.60349 6.20367 2.23352L3.39301 8.55618C2.96476 9.01935 2.9197 9.71925 3.28501 10.2335H6.09567L4.86634 16.3895C4.69591 16.8006 4.74177 17.2695 4.9886 17.6398C5.23543 18.01 5.6507 18.2327 6.09567 18.2335H1.33301" stroke="#00F281" stroke-width="2.66667" stroke-linecap="round" stroke-linejoin="round"/>
</svg>
