<svg width="15" height="15" viewBox="0 0 6 5" fill="none" xmlns="http://www.w3.org/2000/svg">
<path d="M5.10877 2.25008H0.260818C0.191645 2.25008 0.125305 2.27641 0.0763919 2.32328C0.027479 2.37015 0 2.43372 0 2.5C0 2.56628 0.027479 2.62985 0.0763919 2.67672C0.125305 2.72359 0.191645 2.74992 0.260818 2.74992H5.10877L3.20562 4.57199C3.15655 4.61901 3.12898 4.68278 3.12898 4.74928C3.12898 4.81577 3.15655 4.87955 3.20562 4.92657C3.25469 4.97358 3.32124 5 3.39063 5C3.46003 5 3.52658 4.97358 3.57565 4.92657L5.92301 2.67729C5.94741 2.65406 5.96677 2.62644 5.97999 2.59601C5.9932 2.56558 6 2.53295 6 2.5C6 2.46704 5.9932 2.43442 5.97999 2.40399C5.96677 2.37356 5.94741 2.34594 5.92301 2.32271L3.57565 0.0734346C3.55136 0.050153 3.52251 0.0316849 3.49077 0.019085C3.45902 0.00648507 3.425 6.49035e-10 3.39063 0C3.35627 -6.49034e-10 3.32225 0.00648507 3.2905 0.019085C3.25876 0.0316849 3.22991 0.050153 3.20562 0.0734346C3.18132 0.0967163 3.16205 0.124356 3.1489 0.154774C3.13575 0.185193 3.12898 0.217796 3.12898 0.250721C3.12898 0.283647 3.13575 0.31625 3.1489 0.346668C3.16205 0.377087 3.18132 0.404727 3.20562 0.428008L5.10877 2.25008Z" fill="#00D48A"/>
</svg>
