<svg width="32" height="32" viewBox="0 0 32 32" fill="none" xmlns="http://www.w3.org/2000/svg">
<path d="M4 12C4 10.5283 5.19489 9.33337 6.66667 9.33337H7.90667C8.79808 9.33351 9.6306 8.88823 10.1253 8.14671L11.208 6.52004C11.7027 5.77852 12.5353 5.33324 13.4267 5.33337H18.5733C19.4647 5.33324 20.2973 5.77852 20.792 6.52004L21.8747 8.14671C22.3694 8.88823 23.2019 9.33351 24.0933 9.33337H25.3333C26.8051 9.33337 28 10.5283 28 12V24C28 25.4718 26.8051 26.6667 25.3333 26.6667H6.66667C5.19489 26.6667 4 25.4718 4 24V12V12" stroke="#00F281" stroke-width="2.66667" stroke-linecap="round" stroke-linejoin="round"/>
<path d="M20 17.3334C20 19.541 18.2077 21.3334 16 21.3334C13.7923 21.3334 12 19.541 12 17.3334C12 15.1257 13.7923 13.3334 16 13.3334C18.2077 13.3334 20 15.1257 20 17.3334V17.3334" stroke="#00F281" stroke-width="2.66667" stroke-linecap="round" stroke-linejoin="round"/>
</svg>
