<svg width="20" height="20" viewBox="0 0 20 20" fill="none" xmlns="http://www.w3.org/2000/svg">
<path d="M14.7138 13.8808L11.178 17.4167C10.8657 17.7293 10.442 17.9049 10.0001 17.9049C9.55822 17.9049 9.13447 17.7293 8.82217 17.4167L5.28551 13.8808C2.68211 11.2773 2.68218 7.05627 5.28567 4.45283C7.88916 1.84938 12.1102 1.84938 14.7137 4.45283C17.3172 7.05627 17.3172 11.2773 14.7138 13.8808V13.8808" stroke="#00F281" stroke-width="1.66667" stroke-linecap="round" stroke-linejoin="round"/>
<path d="M12.5 9.16663C12.5 10.5464 11.3798 11.6666 10 11.6666C8.62021 11.6666 7.5 10.5464 7.5 9.16663C7.5 7.78684 8.62021 6.66663 10 6.66663C11.3798 6.66663 12.5 7.78684 12.5 9.16663V9.16663" stroke="#00F281" stroke-width="1.66667" stroke-linecap="round" stroke-linejoin="round"/>
</svg>
