<svg width="31" height="28" viewBox="0 0 31 28" fill="none" xmlns="http://www.w3.org/2000/svg">
<path d="M21.333 22.6667H27.9997V20C27.9996 18.296 26.92 16.7792 25.31 16.221C23.7001 15.6628 21.9132 16.1858 20.8583 17.524M21.333 22.6667H7.99967M21.333 22.6667V20C21.333 19.1253 21.165 18.2893 20.8583 17.524M7.99967 22.6667H1.33301V20C1.33313 18.296 2.41272 16.7792 4.02268 16.221C5.63263 15.6628 7.41946 16.1858 8.47434 17.524M7.99967 22.6667V20C7.99967 19.1253 8.16767 18.2893 8.47434 17.524M8.47434 17.524C9.48738 14.9923 11.9395 13.3324 14.6663 13.3324C17.3931 13.3324 19.8453 14.9923 20.8583 17.524M18.6663 5.33333C18.6663 7.54099 16.874 9.33333 14.6663 9.33333C12.4587 9.33333 10.6663 7.54099 10.6663 5.33333C10.6663 3.12567 12.4587 1.33333 14.6663 1.33333C16.874 1.33333 18.6663 3.12567 18.6663 5.33333L21.333 22.6667M29.333 26.6667C29.333 28.1384 28.1381 29.3333 26.6663 29.3333C25.1946 29.3333 23.9997 28.1384 23.9997 26.6667C23.9997 25.1949 25.1946 24 26.6663 24C28.1381 24 29.333 25.1949 29.333 26.6667V26.6667M7.99967 9.33333C7.99967 10.8051 6.80478 12 5.33301 12C3.86123 12 2.66634 10.8051 2.66634 9.33333C2.66634 7.86155 3.86123 6.66666 5.33301 6.66666C6.80478 6.66666 7.99967 7.86155 7.99967 9.33333V9.33333" stroke="#00F281" stroke-width="2.66667" stroke-linecap="round" stroke-linejoin="round"/>
</svg>
