<svg width="15" height="19" viewBox="0 0 15 19" fill="none" xmlns="http://www.w3.org/2000/svg">
<path d="M8.33301 3.62836C9.25002 2.58874 10.7148 2.22519 12.0115 2.71536C13.3082 3.20553 14.1662 4.44709 14.1662 5.83336C14.1662 7.21962 13.3082 8.46118 12.0115 8.95136C10.7148 9.44153 9.25002 9.07798 8.33301 8.03836M10.833 17.5H0.833008V16.6667C0.833008 13.9071 3.07343 11.6667 5.83301 11.6667C8.59258 11.6667 10.833 13.9071 10.833 16.6667V17.5L8.33301 3.62836M8.33301 3.62836H13.333V2.79503C13.3333 1.00857 12.3804 -0.642295 10.8333 -1.53563C9.28626 -2.42897 7.38012 -2.42904 5.83301 -1.53581M9.16634 5.83336C9.16634 7.67307 7.67272 9.16669 5.83301 9.16669C3.99329 9.16669 2.49967 7.67307 2.49967 5.83336C2.49967 3.99364 3.99329 2.50003 5.83301 2.50003C7.67272 2.50003 9.16634 3.99364 9.16634 5.83336L8.33301 3.62836" stroke="#00F281" stroke-width="1.66667" stroke-linecap="round" stroke-linejoin="round"/>
</svg>
