<svg width="11" height="10" viewBox="0 0 11 10" fill="none" xmlns="http://www.w3.org/2000/svg">
<path d="M0.5 2.79167V6.45833C0.5 6.70145 0.596577 6.93461 0.768485 7.10651C0.940394 7.27842 1.17355 7.375 1.41667 7.375H1.875M0.5 2.79167V1.875C0.5 1.63188 0.596577 1.39873 0.768485 1.22682C0.940394 1.05491 1.17355 0.958333 1.41667 0.958333H2.33333M0.5 2.79167C0.98623 2.79167 1.45255 2.59851 1.79636 2.2547C2.14018 1.91088 2.33333 1.44456 2.33333 0.958333M2.33333 0.958333H8.29167M4.0585 5.08333C3.82434 4.82138 3.69934 4.47972 3.70917 4.1285C3.719 3.77727 3.86291 3.44314 4.11136 3.19469C4.35981 2.94624 4.69394 2.80233 5.04516 2.7925C5.39638 2.78267 5.73804 2.90767 6 3.14183M0.5 8.75L8.75 0.5M9.30917 7.85488L9.56079 4.98525C9.59517 4.58879 9.28671 4.23817 8.87146 4.2015L8.49563 4.16896M7.68025 9.15838L8.43192 9.22438C8.84717 9.26058 9.212 8.96863 9.24683 8.57263L9.30963 7.85488C8.47867 7.78246 7.74946 8.36592 7.68025 9.15838ZM7.68025 9.15838L2.79167 8.73075M4.78404 7.13713C4.9715 7.37546 5.21488 7.49692 5.54946 7.52625C6.17233 7.58079 6.71958 7.14308 6.77137 6.54862C6.79933 6.22962 6.73242 5.967 6.51883 5.74975" stroke="#00D48A" stroke-linecap="round" stroke-linejoin="round"/>
</svg>
