<svg width="9" height="10" viewBox="0 0 9 10" fill="none" xmlns="http://www.w3.org/2000/svg">
<path d="M6.25 3.125H3.75V2.5H6.25V3.125ZM3.75 5H6.25V5.625H3.75V5ZM4.38965 9.375L5.01465 10H0V0H7.5V6.26465L6.875 6.88965V0.625H0.625V9.375H4.38965ZM3.34473 2.09473L2.1875 3.25195L1.34277 2.40723L1.78223 1.96777L2.1875 2.37305L2.90527 1.65527L3.34473 2.09473ZM3.34473 4.59473L2.1875 5.75195L1.34277 4.90723L1.78223 4.46777L2.1875 4.87305L2.90527 4.15527L3.34473 4.59473ZM2.1875 7.37305L2.90527 6.65527L3.34473 7.09473L2.1875 8.25195L1.34277 7.40723L1.78223 6.96777L2.1875 7.37305ZM8.65723 7.09473L5.9375 9.81934L4.62402 8.50098L5.06348 8.06152L5.9375 8.93066L8.21777 6.65527L8.65723 7.09473Z" fill="#0D1A3A"/>
</svg>
