<svg width="10" height="12" viewBox="0 0 10 12" fill="none" xmlns="http://www.w3.org/2000/svg">
<path fill-rule="evenodd" clip-rule="evenodd" d="M3.75 1.5625C3.75 1.72826 3.68415 1.88723 3.56694 2.00444C3.44973 2.12165 3.29076 2.1875 3.125 2.1875C2.95924 2.1875 2.80027 2.12165 2.68306 2.00444C2.56585 1.88723 2.5 1.72826 2.5 1.5625C2.5 1.39674 2.56585 1.23777 2.68306 1.12056C2.80027 1.00335 2.95924 0.9375 3.125 0.9375C3.29076 0.9375 3.44973 1.00335 3.56694 1.12056C3.68415 1.23777 3.75 1.39674 3.75 1.5625ZM4.6875 1.5625C4.6875 1.9769 4.52288 2.37433 4.22985 2.66735C3.93683 2.96038 3.5394 3.125 3.125 3.125C2.7106 3.125 2.31317 2.96038 2.02015 2.66735C1.72712 2.37433 1.5625 1.9769 1.5625 1.5625C1.5625 1.1481 1.72712 0.750671 2.02015 0.457646C2.31317 0.16462 2.7106 0 3.125 0C3.5394 0 3.93683 0.16462 4.22985 0.457646C4.52288 0.750671 4.6875 1.1481 4.6875 1.5625ZM6.09375 6.25V5.625C6.09375 5.16916 5.91267 4.73199 5.59034 4.40966C5.26801 4.08733 4.83084 3.90625 4.375 3.90625H1.875C1.41916 3.90625 0.981988 4.08733 0.65966 4.40966C0.337332 4.73199 0.15625 5.16916 0.15625 5.625V6.25H1.09375V5.625C1.09375 5.19375 1.44375 4.84375 1.875 4.84375H4.375C4.80625 4.84375 5.15625 5.19375 5.15625 5.625V6.25H6.09375ZM0 11.25H5.625V10.3125H0V11.25ZM10 8.75H0V7.8125H10V8.75Z" fill="#00D48A"/>
</svg>
