<svg width="14" height="14" viewBox="0 0 14 14" fill="none" xmlns="http://www.w3.org/2000/svg">
<path d="M0.5 5.97813C0.5 4.52524 1.07716 3.13185 2.10451 2.10451C3.13185 1.07716 4.52524 0.5 5.97813 0.5C7.43101 0.5 8.8244 1.07716 9.85175 2.10451C10.8791 3.13185 11.4563 4.52524 11.4563 5.97813H0.5ZM0.5 5.97813C0.500063 7.01009 0.791447 8.02107 1.34063 8.89477C1.88981 9.76846 2.67449 10.4694 3.60438 10.9169" stroke="#0D1A3A"/>
<path d="M5.29355 0.5L3.58105 5.97812L4.1873 7.91562M6.49168 0.5L8.37481 5.97812M9.27543 7.4625L5.28168 9.19312V9.46875L9.27543 11.2L13.2698 9.46875V9.19312L9.27543 7.4625Z" stroke="#0D1A3A"/>
<path d="M6.91992 10.4113L6.92367 12.2163L9.27555 13.3188L11.6305 12.2163V10.4106" stroke="#0D1A3A"/>
<path d="M5.28174 12.0063V9.35376" stroke="#0D1A3A" stroke-linejoin="round"/>
</svg>
