<svg width="14" height="18" viewBox="0 0 14 18" fill="none" xmlns="http://www.w3.org/2000/svg">
<path fill-rule="evenodd" clip-rule="evenodd" d="M8.30045 0.0454177C8.71707 0.17644 9.00047 0.562678 9.00045 0.999418V5.99942H13.0004C13.3733 5.99925 13.7153 6.20653 13.8876 6.53716C14.06 6.86779 14.0341 7.26684 13.8204 7.57242L6.82045 17.5724C6.57042 17.9306 6.11682 18.0851 5.70014 17.9539C5.28347 17.8227 5.00017 17.4363 5.00045 16.9994V11.9994H1.00045C0.627594 11.9996 0.285612 11.7923 0.113257 11.4617C-0.0590974 11.131 -0.0331978 10.732 0.180448 10.4264L7.18045 0.426418C7.43084 0.0688937 7.88419 -0.084922 8.30045 0.0464177V0.0454177Z" fill="#00F281"/>
</svg>
